version 1.00
80
[0,-1.73205,-1][-0,0.8383,0.5452][0.75,0.166667,0][0.707106,-1.73205,-0.707106][-0.3855,0.8383,0.3855][0.625,0.166667,0][1.22474,-1,-1.22474][-0.6225,0.4744,0.6225][0.625,0.333333,0][0,-1,-1.73205][-0,0.4744,0.8803][0.75,0.333333,0][0,0,-2][-0,-0,1][0.75,0.5,0][1.41421,0,-1.41421][-0.7071,-0,0.7071][0.625,0.5,0][1.22474,1,-1.22474][-0.6225,-0.4744,0.6225][0.625,0.666667,0][0,1,-1.73205][-0,-0.4744,0.8803][0.75,0.666667,0][0,1.73205,-1][-0,-0.8383,0.5452][0.75,0.833333,0][0.707106,1.73205,-0.707106][-0.3855,-0.8383,0.3855][0.625,0.833333,0][0,2,0][-0,-1,-0][0.6875,1,0][0,-2,0][-0,1,-0][0.6875,0,0][0.707106,-1.73205,-0.707106][-0.3855,0.8383,0.3855][0.625,0.166667,0][0,-1.73205,-1][-0,0.8383,0.5452][0.75,0.166667,0][0,-1,-1.73205][-0,0.4744,0.8803][0.75,0.333333,0][1.22474,-1,-1.22474][-0.6225,0.4744,0.6225][0.625,0.333333,0][1.41421,0,-1.41421][-0.7071,-0,0.7071][0.625,0.5,0][0,0,-2][-0,-0,1][0.75,0.5,0][0,1,-1.73205][-0,-0.4744,0.8803][0.75,0.666667,0][1.22474,1,-1.22474][-0.6225,-0.4744,0.6225][0.625,0.666667,0][0.707106,1.73205,-0.707106][-0.3855,-0.8383,0.3855][0.625,0.833333,0][0,1.73205,-1][-0,-0.8383,0.5452][0.75,0.833333,0][0.707106,-1.73205,-0.707106][-0.3855,0.8383,0.3855][0.625,0.166667,0][1,-1.73205,0][-0.5452,0.8383,-0][0.5,0.166667,0][1.73205,-1,0][-0.8803,0.4744,-0][0.5,0.333333,0][1.22474,-1,-1.22474][-0.6225,0.4744,0.6225][0.625,0.333333,0][1.41421,0,-1.41421][-0.7071,-0,0.7071][0.625,0.5,0][2,0,0][-1,-0,-0][0.5,0.5,0][1.73205,1,0][-0.8803,-0.4744,-0][0.5,0.666667,0][1.22474,1,-1.22474][-0.6225,-0.4744,0.6225][0.625,0.666667,0][0.707106,1.73205,-0.707106][-0.3855,-0.8383,0.3855][0.625,0.833333,0][1,1.73205,0][-0.5452,-0.8383,-0][0.5,0.833333,0][0,2,0][-0,-1,-0][0.5625,1,0][0,-2,0][-0,1,-0][0.5625,0,0][1,-1.73205,0][-0.5452,0.8383,-0][0.5,0.166667,0][0.707106,-1.73205,-0.707106][-0.3855,0.8383,0.3855][0.625,0.166667,0][1.22474,-1,-1.22474][-0.6225,0.4744,0.6225][0.625,0.333333,0][1.73205,-1,0][-0.8803,0.4744,-0][0.5,0.333333,0][2,0,0][-1,-0,-0][0.5,0.5,0][1.41421,0,-1.41421][-0.7071,-0,0.7071][0.625,0.5,0][1.22474,1,-1.22474][-0.6225,-0.4744,0.6225][0.625,0.666667,0][1.73205,1,0][-0.8803,-0.4744,-0][0.5,0.666667,0][1,1.73205,0][-0.5452,-0.8383,-0][0.5,0.833333,0][0.707106,1.73205,-0.707106][-0.3855,-0.8383,0.3855][0.625,0.833333,0][2,0,0][-1,-0,-0][0.5,0.5,0][1.41421,0,1.41421][-0.7071,-0,-0.7071][0.375,0.5,0][1.22474,1,1.22474][-0.6225,-0.4744,-0.6225][0.375,0.666667,0][1.73205,1,0][-0.8803,-0.4744,-0][0.5,0.666667,0][1,1.73205,0][-0.5452,-0.8383,-0][0.5,0.833333,0][0.707106,1.73205,0.707106][-0.3855,-0.8383,-0.3855][0.375,0.833333,0][0,2,0][-0,-1,-0][0.4375,1,0][0,-2,0][-0,1,-0][0.4375,0,0][0.707106,-1.73205,0.707106][-0.3855,0.8383,-0.3855][0.375,0.166667,0][1,-1.73205,0][-0.5452,0.8383,-0][0.5,0.166667,0][1.73205,-1,0][-0.8803,0.4744,-0][0.5,0.333333,0][1.22474,-1,1.22474][-0.6225,0.4744,-0.6225][0.375,0.333333,0][1.41421,0,1.41421][-0.7071,-0,-0.7071][0.375,0.5,0][2,0,0][-1,-0,-0][0.5,0.5,0][1.73205,1,0][-0.8803,-0.4744,-0][0.5,0.666667,0][1.22474,1,1.22474][-0.6225,-0.4744,-0.6225][0.375,0.666667,0][0.707106,1.73205,0.707106][-0.3855,-0.8383,-0.3855][0.375,0.833333,0][1,1.73205,0][-0.5452,-0.8383,-0][0.5,0.833333,0][1,-1.73205,0][-0.5452,0.8383,-0][0.5,0.166667,0][0.707106,-1.73205,0.707106][-0.3855,0.8383,-0.3855][0.375,0.166667,0][1.22474,-1,1.22474][-0.6225,0.4744,-0.6225][0.375,0.333333,0][1.73205,-1,0][-0.8803,0.4744,-0][0.5,0.333333,0][0.707106,1.73205,0.707106][-0.3855,-0.8383,-0.3855][0.375,0.833333,0][0,1.73205,1][-0,-0.8383,-0.5452][0.25,0.833333,0][0,2,0][-0,-1,-0][0.3125,1,0][0,-2,0][-0,1,-0][0.3125,0,0][0,-1.73205,1][-0,0.8383,-0.5452][0.25,0.166667,0][0.707106,-1.73205,0.707106][-0.3855,0.8383,-0.3855][0.375,0.166667,0][1.22474,-1,1.22474][-0.6225,0.4744,-0.6225][0.375,0.333333,0][0,-1,1.73205][-0,0.4744,-0.8803][0.25,0.333333,0][0,0,2][-0,-0,-1][0.25,0.5,0][1.41421,0,1.41421][-0.7071,-0,-0.7071][0.375,0.5,0][1.22474,1,1.22474][-0.6225,-0.4744,-0.6225][0.375,0.666667,0][0,1,1.73205][-0,-0.4744,-0.8803][0.25,0.666667,0][0,1.73205,1][-0,-0.8383,-0.5452][0.25,0.833333,0][0.707106,1.73205,0.707106][-0.3855,-0.8383,-0.3855][0.375,0.833333,0][0.707106,-1.73205,0.707106][-0.3855,0.8383,-0.3855][0.375,0.166667,0][0,-1.73205,1][-0,0.8383,-0.5452][0.25,0.166667,0][0,-1,1.73205][-0,0.4744,-0.8803][0.25,0.333333,0][1.22474,-1,1.22474][-0.6225,0.4744,-0.6225][0.375,0.333333,0][1.41421,0,1.41421][-0.7071,-0,-0.7071][0.375,0.5,0][0,0,2][-0,-0,-1][0.25,0.5,0][0,1,1.73205][-0,-0.4744,-0.8803][0.25,0.666667,0][1.22474,1,1.22474][-0.6225,-0.4744,-0.6225][0.375,0.666667,0][0,-2,0][-0,1,-0][0.1875,0,0][-0.707106,-1.73205,0.707106][0.3855,0.8383,-0.3855][0.125,0.166667,0][0,-1.73205,1][-0,0.8383,-0.5452][0.25,0.166667,0][0,-1,1.73205][-0,0.4744,-0.8803][0.25,0.333333,0][-1.22474,-1,1.22474][0.6225,0.4744,-0.6225][0.125,0.333333,0][-1.41421,0,1.41421][0.7071,-0,-0.7071][0.125,0.5,0][0,0,2][-0,-0,-1][0.25,0.5,0][0,1,1.73205][-0,-0.4744,-0.8803][0.25,0.666667,0][-1.22474,1,1.22474][0.6225,-0.4744,-0.6225][0.125,0.666667,0][-0.707106,1.73205,0.707106][0.3855,-0.8383,-0.3855][0.125,0.833333,0][0,1.73205,1][-0,-0.8383,-0.5452][0.25,0.833333,0][0,-1.73205,1][-0,0.8383,-0.5452][0.25,0.166667,0][-0.707106,-1.73205,0.707106][0.3855,0.8383,-0.3855][0.125,0.166667,0][-1.22474,-1,1.22474][0.6225,0.4744,-0.6225][0.125,0.333333,0][0,-1,1.73205][-0,0.4744,-0.8803][0.25,0.333333,0][0,0,2][-0,-0,-1][0.25,0.5,0][-1.41421,0,1.41421][0.7071,-0,-0.7071][0.125,0.5,0][-1.22474,1,1.22474][0.6225,-0.4744,-0.6225][0.125,0.666667,0][0,1,1.73205][-0,-0.4744,-0.8803][0.25,0.666667,0][0,1.73205,1][-0,-0.8383,-0.5452][0.25,0.833333,0][-0.707106,1.73205,0.707106][0.3855,-0.8383,-0.3855][0.125,0.833333,0][0,2,0][-0,-1,-0][0.1875,1,0][0,-2,0][-0,1,-0][0.0625,0,0][-1,-1.73205,0][0.5452,0.8383,-0][0,0.166667,0][-0.707106,-1.73205,0.707106][0.3855,0.8383,-0.3855][0.125,0.166667,0][-1.22474,-1,1.22474][0.6225,0.4744,-0.6225][0.125,0.333333,0][-1.73205,-1,0][0.8803,0.4744,-0][0,0.333333,0][-2,0,0][1,-0,-0][0,0.5,0][-1.41421,0,1.41421][0.7071,-0,-0.7071][0.125,0.5,0][-1.22474,1,1.22474][0.6225,-0.4744,-0.6225][0.125,0.666667,0][-1.73205,1,0][0.8803,-0.4744,-0][0,0.666667,0][-1,1.73205,0][0.5452,-0.8383,-0][0,0.833333,0][-0.707106,1.73205,0.707106][0.3855,-0.8383,-0.3855][0.125,0.833333,0][-0.707106,-1.73205,0.707106][0.3855,0.8383,-0.3855][0.125,0.166667,0][-1,-1.73205,0][0.5452,0.8383,-0][0,0.166667,0][-1.73205,-1,0][0.8803,0.4744,-0][0,0.333333,0][-1.22474,-1,1.22474][0.6225,0.4744,-0.6225][0.125,0.333333,0][-1.41421,0,1.41421][0.7071,-0,-0.7071][0.125,0.5,0][-2,0,0][1,-0,-0][0,0.5,0][-1.73205,1,0][0.8803,-0.4744,-0][0,0.666667,0][-1.22474,1,1.22474][0.6225,-0.4744,-0.6225][0.125,0.666667,0][-0.707106,1.73205,0.707106][0.3855,-0.8383,-0.3855][0.125,0.833333,0][-1,1.73205,0][0.5452,-0.8383,-0][0,0.833333,0][0,2,0][-0,-1,-0][0.0625,1,0][0,-2,0][-0,1,-0][0.9375,0,0][-0.707106,-1.73205,-0.707106][0.3855,0.8383,0.3855][0.875,0.166667,0][-1,-1.73205,0][0.5452,0.8383,-0][1,0.166667,0][-1.73205,-1,0][0.8803,0.4744,-0][1,0.333333,0][-1.22474,-1,-1.22474][0.6225,0.4744,0.6225][0.875,0.333333,0][-1.41421,0,-1.41421][0.7071,-0,0.7071][0.875,0.5,0][-2,0,0][1,-0,-0][1,0.5,0][-1.73205,1,0][0.8803,-0.4744,-0][1,0.666667,0][-1.22474,1,-1.22474][0.6225,-0.4744,0.6225][0.875,0.666667,0][-0.707106,1.73205,-0.707106][0.3855,-0.8383,0.3855][0.875,0.833333,0][-1,1.73205,0][0.5452,-0.8383,-0][1,0.833333,0][-1,-1.73205,0][0.5452,0.8383,-0][1,0.166667,0][-0.707106,-1.73205,-0.707106][0.3855,0.8383,0.3855][0.875,0.166667,0][-1.22474,-1,-1.22474][0.6225,0.4744,0.6225][0.875,0.333333,0][-1.73205,-1,0][0.8803,0.4744,-0][1,0.333333,0][-2,0,0][1,-0,-0][1,0.5,0][-1.41421,0,-1.41421][0.7071,-0,0.7071][0.875,0.5,0][-1.22474,1,-1.22474][0.6225,-0.4744,0.6225][0.875,0.666667,0][-1.73205,1,0][0.8803,-0.4744,-0][1,0.666667,0][-1,1.73205,0][0.5452,-0.8383,-0][1,0.833333,0][-0.707106,1.73205,-0.707106][0.3855,-0.8383,0.3855][0.875,0.833333,0][0,2,0][-0,-1,-0][0.9375,1,0][-1.22474,-1,-1.22474][0.6225,0.4744,0.6225][0.875,0.333333,0][0,-1,-1.73205][-0,0.4744,0.8803][0.75,0.333333,0][0,0,-2][-0,-0,1][0.75,0.5,0][-1.41421,0,-1.41421][0.7071,-0,0.7071][0.875,0.5,0][-1.22474,1,-1.22474][0.6225,-0.4744,0.6225][0.875,0.666667,0][0,1,-1.73205][-0,-0.4744,0.8803][0.75,0.666667,0][0,1.73205,-1][-0,-0.8383,0.5452][0.75,0.833333,0][-0.707106,1.73205,-0.707106][0.3855,-0.8383,0.3855][0.875,0.833333,0][-0.707106,-1.73205,-0.707106][0.3855,0.8383,0.3855][0.875,0.166667,0][0,-1.73205,-1][-0,0.8383,0.5452][0.75,0.166667,0][0,-1,-1.73205][-0,0.4744,0.8803][0.75,0.333333,0][-1.22474,-1,-1.22474][0.6225,0.4744,0.6225][0.875,0.333333,0][-1.41421,0,-1.41421][0.7071,-0,0.7071][0.875,0.5,0][0,0,-2][-0,-0,1][0.75,0.5,0][0,1,-1.73205][-0,-0.4744,0.8803][0.75,0.666667,0][-1.22474,1,-1.22474][0.6225,-0.4744,0.6225][0.875,0.666667,0][-0.707106,1.73205,-0.707106][0.3855,-0.8383,0.3855][0.875,0.833333,0][0,1.73205,-1][-0,-0.8383,0.5452][0.75,0.833333,0][0,2,0][-0,-1,-0][0.8125,1,0][0,-2,0][-0,1,-0][0.8125,0,0][0,-1.73205,-1][-0,0.8383,0.5452][0.75,0.166667,0][-0.707106,-1.73205,-0.707106][0.3855,0.8383,0.3855][0.875,0.166667,0]